<?xml version="1.0" encoding="utf-8"?>
<!DOCTYPE svg PUBLIC "-//W3C//DTD SVG 1.1//EN" "http://www.w3.org/Graphics/SVG/1.1/DTD/svg11.dtd">
<svg version="1.1" id="Ebene_1" xmlns="http://www.w3.org/2000/svg" xmlns:xlink="http://www.w3.org/1999/xlink" x="0px" y="0px"
	 viewBox="0 0 285 285" enable-background="new 0 0 285 285" xml:space="preserve">
<g>
	<path fill="#020202" d="M148.4,280.2c-64.3,0-116.6-52.7-116.6-117.6C31.8,97.8,84.1,45,148.4,45S265,97.8,265,162.6
		C265,227.5,212.7,280.2,148.4,280.2L148.4,280.2z M148.4,50.9c-61,0-110.7,50.1-110.7,111.7s49.7,111.7,110.7,111.7
		s110.7-50.1,110.7-111.7C259.1,101,209.5,50.9,148.4,50.9L148.4,50.9z"/>
	<g>
		<g>
			<defs>
				<path id="SVGID_1_" d="M212,67.6v-0.3l6.6-33.2c0,0-14.7-33.9-64.1-29.8C105.2,8.4,99,19.8,90.9,33.4l4.8,21.7L86.5,61
					c0,0-3.3-9.9-8.5-10.3c0,0,7.7-11.1,2.2-18.8s-35-7-46.4,32c0,0-1.5-11.8-6.3-11.8S5,58.5,9.8,76.9s21.4,23.9,26.9,26.2
					c0,0,2.6,3.3,1.5,7.7c-0.6,2.3-13.9,43.6-2.8,81.8c8.3,28.5,35,53.3,35,53.3c20.4,19.4,47.8,31.3,78,31.3
					c62.7,0,113.6-51.3,113.6-114.6C262.1,123.1,242.2,88.2,212,67.6L212,67.6z"/>
			</defs>
			<clipPath id="SVGID_2_">
				<use xlink:href="#SVGID_1_"  overflow="visible"/>
			</clipPath>
			<g clip-path="url(#SVGID_2_)">
				<path fill="#F4CF8C" d="M280.2,333.2c0,0,1.9,25.7-5.1,30.9c0,0-1.5,10.3-11.4,10.6c0,0-2.2,5.9-12.5,2.9
					c-10.3-2.9-19.1-33.1-19.1-33.1S263.2,318.1,280.2,333.2L280.2,333.2z"/>
				<path fill="#050505" d="M188.5,204.4c0,0,82.6,13.3,91.7,128.8c0,0-15.4,9.8-31.5,10.5C248.7,343.7,250.1,254.8,188.5,204.4
					L188.5,204.4z"/>
				<path fill="#DD002A" d="M269.8,282.3c-4.5,2.2-14.1,6-28.9,7.5c0.5,1.9,1,3.8,1.5,5.7c5.9-0.9,16.5-3.1,29.2-8.1
					C271,285.7,270.4,284,269.8,282.3L269.8,282.3z M236.8,276.6c0.6,1.9,1.3,3.7,1.8,5.6c5.4-0.6,17.6-2.3,28.4-7.1
					c-0.8-1.8-1.5-3.6-2.3-5.3C260.7,271.6,251.9,274.8,236.8,276.6L236.8,276.6z M280.2,333.2c-0.8-10.6-2.3-20.3-4.2-29.2
					c-6.3,3.9-16.3,8.6-29.8,10.4c2.8,17.5,2.6,29.3,2.6,29.3C264.8,343,280.2,333.2,280.2,333.2L280.2,333.2z"/>
				<circle fill="#F4CF8C" cx="103.3" cy="116.9" r="17.7"/>
				<circle fill="#F4CF8C" cx="103.3" cy="116.9" r="17.7"/>
				<path fill="#F4CF8C" d="M85.6,116.9c0,0.5,0,1.1,0.1,1.6c1.3-0.5,2.6-1.2,4-2.2c8.4-5.4,8.6-11.8,6.8-15.8
					C90.1,103.3,85.6,109.6,85.6,116.9z"/>
				<circle fill="#F4CF8C" cx="94.2" cy="116.9" r="8.6"/>
				<path fill="#D8AF6F" d="M94.2,108.4c-0.3,0-0.7,0-1,0.1c3.3,0.5,5.9,4.1,5.9,8.5s-2.6,8-5.9,8.5c0.3,0,0.7,0.1,1,0.1
					c4.7,0,8.6-3.8,8.6-8.6C102.7,112.2,98.9,108.4,94.2,108.4L94.2,108.4z"/>
				<path fill="#F4CF8C" d="M93.1,108.5c-0.3,0-0.5-0.1-0.8-0.1c-3.7,0-6.7,3.8-6.7,8.6C85.6,112.6,88.9,109,93.1,108.5z
					 M85.6,116.9c0,4.7,3,8.6,6.7,8.6c0.3,0,0.5,0,0.8-0.1C88.9,124.9,85.6,121.3,85.6,116.9z"/>
				<circle fill="#F4CF8C" cx="207" cy="116.9" r="17.7"/>
				<circle fill="#F4CF8C" cx="207" cy="116.9" r="17.7"/>
				<circle fill="#F4CF8C" cx="216.1" cy="116.9" r="8.6"/>
				<path fill="#D8AF6F" d="M211.2,116.9c0-4.4,2.6-8,5.9-8.5c-0.3,0-0.7-0.1-1-0.1c-4.7,0-8.6,3.8-8.6,8.6c0,4.7,3.8,8.6,8.6,8.6
					c0.3,0,0.7,0,1-0.1C213.8,124.9,211.2,121.3,211.2,116.9z"/>
				<path fill="#F4CF8C" d="M224.7,116.9c0-4.7-3-8.6-6.7-8.6c-0.3,0-0.5,0-0.8,0.1C221.4,109,224.7,112.6,224.7,116.9z
					 M217.2,125.4c0.3,0,0.5,0.1,0.8,0.1c3.7,0,6.7-3.8,6.7-8.6C224.7,121.3,221.4,124.9,217.2,125.4L217.2,125.4z M53.8,128.3
					c0,0,16.9,2.2,14.7-14.7c0,0,5.9,9.2,19.1,0.7c13.2-8.4,6.2-19.5,2.6-19.8c-3.7-0.4-8.8-4.4-21.7,8.8l-7.3-16.9l8.4-11
					c0,0,1.2,15.9,13.4,11.4c12.3-4.5,3.1-31.6-7.9-31.6L55.3,66.6c0,0,3.7-10.3,19.8-18.7c0,0,6.2-3.7,2.6-12.9
					c-3.7-9.2-38.6-2.6-44.1,42.2c0,0-6.2-5.9-4.8-15.1s-18-6.6-14.3,13.2s22.8,23.9,22.8,23.9s6.5,10.5,1.8,22.4
					C39.1,121.7,46.5,130.8,53.8,128.3z M87.6,114.3c13.2-8.4,6.2-19.5,2.6-19.8c-2.3-0.2-5.1-1.8-9.9,0l4.3,8.9
					c0,0-0.9,12.7-15.1,9.5c0,0-0.1,0.5-0.5,1.3C70.6,116.1,76.5,121.4,87.6,114.3z M68.6,114.8c-2.2,3.9-9.8,11.5-28.2,2.1
					c-0.3,1.7-0.7,3.1-1.3,4.8c0,0,7.3,9.2,14.7,6.6C53.8,128.3,69.9,130.4,68.6,114.8z M69.6,75.4c0,0,1.2,15.9,13.4,11.4
					c5-1.8,6.4-7.5,5.6-13.5c-3.1,3.2-12.5,11.2-16.2-5.8L55.6,87.1l-13.3,7.7l16.6-4.2l9.7,12.6l-7.3-16.9L69.6,75.4z M58.1,61.8
					c2.7-3.8,7.9-9.2,17.1-14c0,0,6.2-3.7,2.6-12.9c-0.1-0.2-0.1-0.3-0.2-0.5c-0.9,2.8-2.6,6.1-5.9,8.4
					c-6.8,4.7-31.1,21.6-23.4,47.1C48.2,90.1,45,74.3,58.1,61.8z M33.3,76.9c-1.3-1.4-5.7-6.8-4.4-14.7c0.6-3.6-2.1-5.4-5.3-5
					C22.9,67,24.3,87,43.7,92.7C43.7,92.7,36.4,89.3,33.3,76.9z"/>
				<path fill="#050505" d="M39.1,121.7l14.7,6.6c0,0-13.2,72.7,55.8,75.7c0,0,0.5,46.8-42.1,46C67.5,250,11.2,205.2,39.1,121.7z"/>
				<path fill="#DD002A" d="M56.7,167.8c-0.2-0.7-0.4-1.3-0.6-2l0,0c-3.3,1.7-12,5.5-24.6,5.4c0.1,1.6,0.2,3.2,0.3,4.8
					c6.3,0,16.8-0.8,25.9-5.7v-0.1c-0.3-0.7-0.5-1.4-0.7-2.1L56.7,167.8z M61.4,178.2c-0.3-0.6-0.7-1.2-1-1.8l0,0
					c-3.8,1.8-14.2,6-28,6.1c0.2,1.8,0.5,3.6,0.8,5.3c7.5,0,18.5-1.3,29.3-7.6v-0.1C62.1,179.5,61.8,178.9,61.4,178.2L61.4,178.2
					L61.4,178.2z M39.1,121.7c-4,10.9-5.7,21-7,30.4c7,1.3,14,1.5,20.9-3c-0.9-11.8,0.8-20.8,0.8-20.8L39.1,121.7z"/>
				<path fill="#050505" d="M60.5,308.2l90,116c0,0,3.5,1.3,5-0.5V308.2H60.5z M249.8,308.2l-90,116c0,0-3.5,1.3-5-0.5V308.2H249.8z
					 M196.6,202.1h-82.8c-88.2,38.7-67.7,184.8-67.7,184.8h109.6v-66.8l6.1,66.8h102.4C264.2,386.8,284.8,240.8,196.6,202.1
					L196.6,202.1z"/>
				<path fill="#F4CF8C" d="M232.1,344.6c0,0,8.8,30.1,19.1,33.1c10.3,2.9,12.5-2.9,12.5-2.9c2.9-0.1,5.1-1.1,6.7-2.4
					c0.7-10.6,1.2-26.1,0-43.6C253.4,326.5,232.1,344.6,232.1,344.6z"/>
				<path fill="#930023" d="M270.9,338c-1.2-31.4-7.5-71.7-28.7-102c-25.3-27-53.7-31.6-53.7-31.6c61.6,50.4,60.2,139.3,60.2,139.3
					C256.9,343.3,265,340.6,270.9,338z"/>
				<path fill="#DD002A" d="M49.6,293.1c-0.3,1.3-0.6,2.7-0.8,4c24.4-9,62.9-14.8,106.3-14.8s82,5.8,106.3,14.8
					c-0.3-1.3-0.5-2.7-0.8-4c-24.4-8.8-62.6-14.5-105.5-14.5S74,284.3,49.6,293.1z M54.5,274.6c-0.4,1.2-0.7,2.4-1.1,3.6
					c24.5-8.1,61-13.2,101.8-13.2s77.3,5.1,101.8,13.2c-0.4-1.2-0.7-2.4-1.1-3.6c-24.5-7.9-60.5-12.8-100.7-12.8
					C115,261.8,78.9,266.8,54.5,274.6z M88.7,218.1c-18.9,24.3-16.8,54-16.8,54l5.1-2.3c-1.6-25.8,10.2-46.3,17.6-56.5
					C92.6,214.8,90.6,216.4,88.7,218.1z M215.7,213.3c7.4,10.2,19.2,30.6,17.6,56.5l5.1,2.3c0,0,2-29.6-16.8-54
					C219.7,216.4,217.7,214.8,215.7,213.3L215.7,213.3z M155.7,320.1l6.1,66.8h102.4c0,0,6.3-44.8-3.1-91.4l-5.2-1.7
					c8.6,23.5,4.6,86.9,4.6,86.9h-93.2l-8.8-98.5h-7.1l-0.9,98.5H50.9C46.3,336,53.4,294,53.4,294l-4.2,1.2
					c-9.5,46.7-3.1,91.7-3.1,91.7h109.6V320.1L155.7,320.1z"/>
				<path fill="#F4CF8C" d="M201,199c0,0-17.6,16-46.6,16c-34.4,0-45.1-16-45.1-16l-6.1-112.2H207L201,199L201,199z M201,199
					c0,0-17.6,16-46.6,16c-34.4,0-45.1-16-45.1-16l-6.1-112.2H207L201,199L201,199z M201,199c0,0-17.6,16-46.6,16
					c-34.4,0-45.1-16-45.1-16l-6.1-112.2H207L201,199L201,199z"/>
				<path fill="#B27D30" d="M168.3,106l2.6-3.3c0,0,9.3-0.5,23.7,7.2c0,0-10.4-12.8-26-8.5l0.5-2.8l-4.4,7.2c0,0,1.6,9.7-0.1,16.7
					h-18.7c-1.7-7-0.1-16.7-0.1-16.7l-4.4-7.2l0.5,2.8c-15.6-4.3-26,8.5-26,8.5c14.3-7.7,23.7-7.2,23.7-7.2l2.6,3.3
					c-5,10-16.8,10.8-16.8,10.8c12.4,1.3,16.9-6.4,16.9-6.4c-0.7,6.1,0.6,14.1,0.6,14.1l12.4,8.8l0.1-0.1l0.1,0.1l12.4-8.8
					c0,0,1.3-8,0.6-14.1c0,0,4.5,7.7,16.9,6.4C185.1,116.8,173.3,116,168.3,106L168.3,106z"/>
				<ellipse fill="#050505" cx="155.1" cy="142.3" rx="17" ry="10.2"/>
				<path fill="#DD002A" d="M155.1,153c3.9,0,7.4-1.3,10.3-2.6c-2-2.2-5.8-3.6-10.3-3.6c-4.4,0-8.3,1.5-10.3,3.6
					C147.7,151.7,151.3,153,155.1,153z"/>
				<path fill="#FFFFFF" d="M155.1,132.1c-9.4,0-17,4.6-17,10.2c0,0.3,0,0.6,0.1,0.9h33.9c0-0.3,0.1-0.6,0.1-0.9
					C172.2,136.7,164.6,132.1,155.1,132.1L155.1,132.1z"/>
				<path fill="#C98C28" d="M155.1,159.1c-3.5,0-6.7-0.6-9.4-1.7c2.2,2.8,5.5,4.6,9.4,4.6c3.8,0,7.2-1.8,9.4-4.6
					C161.8,158.5,158.6,159.1,155.1,159.1z M155.1,189.5c-5.9,0-11.4-1.1-16-2.9c3.7,4.8,9.5,7.8,16,7.8s12.3-3.1,16-7.8
					C166.5,188.4,161.1,189.5,155.1,189.5L155.1,189.5z"/>
				<path fill="#CEA063" d="M104.2,105.3H206l1-18.4H103.2L104.2,105.3z"/>
				<path fill="#050505" d="M207.3,86.8l9.1-52.7c0,0-13.7-27-61-27c-57.4,0-61.6,27-61.6,27l9.2,52.7H207.3z"/>
				<path fill="#DD002A" d="M99.1,64.2l3.9,22.6h104.3l3.9-22.6L99.1,64.2z"/>
				<path fill="#050505" d="M223,99.4H87.3l-4.2-12.6h144.2L223,99.4z"/>
				<circle fill="#050505" cx="155.1" cy="71.5" r="16.8"/>
				<path fill="#DD002A" d="M155.1,86.2c-8.1,0-14.7-6.6-14.7-14.7s6.6-14.7,14.7-14.7c8.1,0,14.7,6.6,14.7,14.7
					C169.9,79.6,163.3,86.2,155.1,86.2z M155.1,58.7c-7.1,0-12.8,5.7-12.8,12.8s5.7,12.8,12.8,12.8s12.8-5.7,12.8-12.8
					C168,64.4,162.2,58.7,155.1,58.7L155.1,58.7z M155.1,82.1c-5.9,0-10.6-4.8-10.6-10.6c0-5.9,4.8-10.6,10.6-10.6
					c5.9,0,10.6,4.8,10.6,10.6C165.8,77.3,161,82.1,155.1,82.1z M155.1,62.2c-5.1,0-9.2,4.1-9.2,9.2s4.1,9.2,9.2,9.2
					c5.1,0,9.2-4.1,9.2-9.2C164.4,66.4,160.2,62.2,155.1,62.2z M157.8,67.7l4.8-3.5l-3.7,4.7l5.8-1.5l-5.1,3.1l5.9,0.7l-5.9,1
					L165,75l-5.8-1.2l3.9,4.5l-5-3.2l2,5.6l-3.5-4.8l-0.1,6l-1.5-5.8l-2.3,5.5l0.6-5.9l-4.1,4.3l2.7-5.3l-5.4,2.5l4.5-4l-6,0.4
					l5.6-2.1l-5.7-1.8l6,0.1l-4.7-3.7l5.5,2.2l-3-5.1l4.3,4.1l-1-5.9l2.6,5.4l1.2-5.8l0.5,6l3.3-5L157.8,67.7z"/>
				<path fill="#050505" d="M158.3,71.5c0,1.8-1.4,3.2-3.2,3.2s-3.2-1.4-3.2-3.2c0-1.8,1.4-3.2,3.2-3.2
					C156.9,68.3,158.3,69.7,158.3,71.5z"/>
				<path fill="#DD002A" d="M154.4,215.1c-34.4,0-45.1-16-45.1-16l1.2,22.8c0,0,10.3,15.6,43.9,15.6c28.2,0,45.3-15.6,45.3-15.6
					L201,199C200.9,199,183.3,215.1,154.4,215.1L154.4,215.1z"/>
				<path fill="#050505" d="M155.1,237.1c0.8-3,1.3-6.8,1.3-10.9c0-4.2-0.5-8-1.3-10.9c-0.8,3-1.3,6.8-1.3,10.9
					S154.3,234.2,155.1,237.1L155.1,237.1z"/>
				<circle fill="#930023" cx="163.3" cy="226.9" r="3.1"/>
				<circle fill="#FFFFFF" cx="162.6" cy="226.2" r="3.1"/>
				<path fill="#FFB000" d="M166.3,257.6H144c-3.5,0-6.4,2.9-6.4,6.4v15.9c0,3.5,2.9,6.4,6.4,6.4h22.3c3.5,0,6.4-2.9,6.4-6.4V264
					C172.7,260.4,169.8,257.6,166.3,257.6z M164.6,266.5v10.9c0,0.6-0.5,1.2-1.2,1.2h-16.5c-0.6,0-1.2-0.5-1.2-1.2v-10.9
					c0-0.6,0.5-1.2,1.2-1.2h16.5C164,265.3,164.6,265.8,164.6,266.5L164.6,266.5z"/>
				<path fill="#C98C28" d="M142.8,124.5l12.3,8.7l0.1-0.1l0.1,0.1l12.3-8.7H142.8z"/>
				<path fill="#4F1907" d="M155.1,131.3c0,0-10.4-12.4-34.8-6.3l-36.9,36.3c0,0,13.3,9.9,34.1,7.2S155.3,143.6,155.1,131.3z
					 M155.1,131.3c0,0,10.4-12.4,34.8-6.3c24.4,6.1,36.9,36.3,36.9,36.3s-13.3,9.9-34.1,7.2S155,143.6,155.1,131.3L155.1,131.3z"/>
				<path fill="#DD002A" d="M205.7,237.3h2.2L204,242l-3.8-4.7h2.2v-2.1h-8.2v2.1h3.2l5.4,6.7v4.2h-3.2v2.1h8.6v-2.1H205V244
					l5.4-6.7h3.2v-2.1h-8.2L205.7,237.3z"/>
			</g>
		</g>
	</g>
</g>
</svg>
